<?xml version="1.0" encoding="UTF-8"?>
<!DOCTYPE svg PUBLIC "-//W3C//DTD SVG 1.1//EN" "http://www.w3.org/Graphics/SVG/1.1/DTD/svg11.dtd">
<!-- Creator: CorelDRAW 2018 (64-Bit) -->
<svg xmlns="http://www.w3.org/2000/svg" xml:space="preserve" width="203px" height="60px" version="1.1" style="shape-rendering:geometricPrecision; text-rendering:geometricPrecision; image-rendering:optimizeQuality; fill-rule:evenodd; clip-rule:evenodd"
viewBox="0 0 203 59.999"
 xmlns:xlink="http://www.w3.org/1999/xlink">
 <defs>
  <style type="text/css">
   <![CDATA[
    .fil0 {fill:black}
    .fil2 {fill:#00E3FF}
    .fil5 {fill:#00F076}
    .fil4 {fill:#C31162}
    .fil3 {fill:#FF9C00}
    .fil1 {fill:white}
    .fil7 {fill:black;fill-opacity:0.121569}
    .fil6 {fill:black;fill-opacity:0.200000}
    .fil8 {fill:white;fill-opacity:0.250980}
   ]]>
  </style>
 </defs>
 <g id="Layer_x0020_1">
  <metadata id="CorelCorpID_0Corel-Layer"/>
  <g id="_2060246994624">
   <path class="fil0" d="M195.634 60l-188.268 0c-4.152,0 -7.534,-3.382 -7.534,-7.5l0 -45.001c0,-4.133 3.382,-7.499 7.534,-7.499l188.268 0c4.148,0 7.533,3.366 7.533,7.5l0 45c0,4.118 -3.385,7.5 -7.533,7.5z"/>
   <path class="fil1" d="M106.95 19.847c-1.358,0 -2.502,-0.475 -3.408,-1.41 -0.898,-0.909 -1.399,-2.162 -1.376,-3.441 0,-1.366 0.463,-2.521 1.376,-3.438 0.902,-0.935 2.046,-1.41 3.404,-1.41 1.343,0 2.488,0.475 3.408,1.41 0.913,0.947 1.376,2.102 1.376,3.438 -0.014,1.369 -0.478,2.525 -1.376,3.438 -0.901,0.942 -2.046,1.413 -3.404,1.413zm-40.403 0c-1.328,0 -2.48,-0.467 -3.423,-1.391 -0.935,-0.92 -1.41,-2.083 -1.41,-3.457 0,-1.372 0.475,-2.536 1.41,-3.456 0.924,-0.924 2.076,-1.391 3.423,-1.391 0.658,0 1.298,0.131 1.911,0.396 0.603,0.258 1.093,0.61 1.455,1.04l0.09 0.109 -1.013 0.995 -0.105 -0.124c-0.572,-0.681 -1.339,-1.014 -2.353,-1.014 -0.905,0 -1.695,0.322 -2.345,0.958 -0.655,0.64 -0.988,1.478 -0.988,2.491 0,1.014 0.333,1.852 0.988,2.491 0.65,0.636 1.44,0.958 2.345,0.958 0.965,0 1.777,-0.322 2.409,-0.958 0.374,-0.373 0.606,-0.897 0.689,-1.56l-3.251 0.001 0 -1.399 4.646 0 0.018 0.127c0.034,0.236 0.068,0.479 0.068,0.703 0,1.291 -0.389,2.334 -1.16,3.105 -0.875,0.913 -2.02,1.376 -3.404,1.376zm53.72 -0.198l-1.433 0 -4.388 -7.021 0.038 1.264 0 5.754 -1.433 0 0 -9.296 1.635 0 0.045 0.071 4.126 6.613 -0.038 -1.26 0 -5.424 1.448 0 0 9.299zm-24.083 0l-1.451 0 0 -7.9 -2.517 0 0 -1.399 6.482 0 0 1.399 -2.517 0 0 7.9 0.003 0zm-5.151 0l-1.447 0 0 -9.299 1.447 0 0 9.299zm-8.135 0l-1.448 0 0 -7.9 -2.518 0 0 -1.399 6.483 0 0 1.399 -2.517 0 0 7.9zm-4.882 -0.015l-5.551 0 0 -9.284 5.551 0 0 1.399 -4.1 0 0 2.551 3.7 0 0 1.384 -3.7 0 0 2.551 4.1 0 0 1.399zm26.589 -2.158c0.647,0.647 1.432,0.973 2.345,0.973 0.939,0 1.706,-0.319 2.345,-0.973 0.636,-0.636 0.958,-1.47 0.958,-2.477 0,-1.006 -0.322,-1.844 -0.954,-2.476 -0.647,-0.647 -1.436,-0.972 -2.345,-0.972 -0.939,0 -1.706,0.317 -2.342,0.972 -0.636,0.636 -0.958,1.47 -0.958,2.476 0,1.007 0.319,1.845 0.951,2.477l0 0z"/>
   <path class="fil1" d="M102.031 32.633c-3.535,0 -6.4,2.682 -6.4,6.382 0,3.665 2.884,6.381 6.4,6.381 3.535,0 6.4,-2.701 6.4,-6.381 0,-3.7 -2.865,-6.382 -6.4,-6.382zm0 10.234c-1.934,0 -3.598,-1.601 -3.598,-3.867 0,-2.301 1.668,-3.868 3.598,-3.868 1.934,0 3.599,1.567 3.599,3.868 0.003,2.282 -1.665,3.867 -3.599,3.867zm-13.964 -10.234c-3.535,0 -6.4,2.682 -6.4,6.382 0,3.665 2.884,6.381 6.4,6.381 3.535,0 6.4,-2.701 6.4,-6.381 0,-3.7 -2.869,-6.382 -6.4,-6.382zm0 10.234c-1.934,0 -3.598,-1.601 -3.598,-3.867 0,-2.301 1.668,-3.868 3.598,-3.868 1.934,0 3.599,1.567 3.599,3.868 0,2.282 -1.665,3.867 -3.599,3.867zm-16.616 -8.285l0 2.701 6.483 0c-0.199,1.515 -0.7,2.633 -1.467,3.4 -0.95,0.95 -2.416,1.983 -5.001,1.983 -3.984,0 -7.1,-3.218 -7.1,-7.201 0,-3.984 3.116,-7.201 7.1,-7.201 2.151,0 3.718,0.849 4.882,1.934l1.915 -1.915c-1.616,-1.549 -3.767,-2.735 -6.782,-2.735 -5.465,0 -10.051,4.452 -10.051,9.902 0,5.465 4.582,9.901 10.051,9.901 2.951,0 5.166,-0.965 6.916,-2.783 1.785,-1.784 2.35,-4.301 2.35,-6.333 0,-0.632 -0.049,-1.201 -0.15,-1.683l-9.15 0c0.004,-0.004 0.004,0.03 0.004,0.03zm67.964 2.102c-0.535,-1.433 -2.15,-4.066 -5.465,-4.066 -3.284,0 -6.015,2.585 -6.015,6.381 0,3.584 2.701,6.382 6.333,6.382 2.918,0 4.616,-1.784 5.316,-2.831l-2.166 -1.452c-0.718,1.066 -1.717,1.766 -3.135,1.766 -1.433,0 -2.435,-0.651 -3.101,-1.934l8.532 -3.535c0,0.004 -0.299,-0.711 -0.299,-0.711zm-8.7 2.133c-0.068,-2.466 1.915,-3.719 3.332,-3.719 1.119,0 2.05,0.55 2.368,1.351l-5.7 2.368zm-6.932 6.183l2.802 0 0 -18.749 -2.802 0 0 18.749zm-4.601 -10.949l-0.101 0c-0.632,-0.752 -1.833,-1.433 -3.367,-1.433 -3.183,0 -6.116,2.802 -6.116,6.4 0,3.584 2.918,6.352 6.116,6.352 1.515,0 2.735,-0.685 3.367,-1.451l0.101 0 0 0.916c0,2.435 -1.302,3.748 -3.4,3.748 -1.717,0 -2.783,-1.234 -3.217,-2.267l-2.436 1.018c0.7,1.683 2.567,3.767 5.649,3.767 3.284,0 6.067,-1.934 6.067,-6.651l0 -11.45 -2.648 0 0 1.051c0.004,0 -0.015,0 -0.015,0zm-3.217 8.816c-1.934,0 -3.55,-1.615 -3.55,-3.849 0,-2.252 1.616,-3.882 3.55,-3.882 1.915,0 3.4,1.649 3.4,3.882 0.019,2.234 -1.481,3.849 -3.4,3.849zm36.569 -16.616l-6.7 0 0 18.749 2.802 0 0 -7.1 3.902 0c3.101,0 6.149,-2.248 6.149,-5.817 0,-3.568 -3.037,-5.832 -6.153,-5.832zm0.082 9.031l-3.984 0 0 -6.434 3.984 0c2.099,0 3.284,1.731 3.284,3.216 0,1.471 -1.2,3.218 -3.284,3.218zm17.301 -2.682c-2.035,0 -4.134,0.901 -5.002,2.865l2.484 1.032c0.535,-1.032 1.515,-1.384 2.551,-1.384 1.452,0 2.918,0.868 2.952,2.417l0 0.198c-0.501,-0.285 -1.601,-0.718 -2.918,-0.718 -2.682,0 -5.402,1.466 -5.402,4.215 0,2.518 2.2,4.134 4.65,4.134 1.882,0 2.918,-0.849 3.565,-1.833l0.101 0 0 1.451 2.701 0 0 -7.182c0,-3.344 -2.484,-5.195 -5.682,-5.195zm-0.352 10.267c-0.916,0 -2.2,-0.448 -2.2,-1.601 0,-1.451 1.601,-2.001 2.967,-2.001 1.234,0 1.818,0.266 2.551,0.632 -0.202,1.684 -1.623,2.956 -3.318,2.97zm15.887 -9.867l-3.217 8.132 -0.101 0 -3.333 -8.132 -3.015 0 5.001 11.368 -2.85 6.318 2.917 -0.001 7.695 -17.685c0,0 -3.097,0 -3.097,0zm-25.22 12l2.802 0 0 -18.749 -2.802 0 0 18.749z"/>
   <path class="fil2" d="M15.483 11.3c-0.434,0.468 -0.685,1.182 -0.685,2.117l0 33.169c0,0.935 0.251,1.649 0.7,2.098l0.116 0.101 18.584 -18.583 0 -0.416 -18.599 -18.587c0,0 -0.116,0.101 -0.116,0.101z"/>
   <path class="fil3" d="M40.381 36.415l-6.198 -6.198 0 -0.434 6.198 -6.199 0.134 0.083 7.332 4.167c2.099,1.182 2.099,3.134 0,4.331l-7.332 4.168c0.001,0 -0.134,0.082 -0.134,0.082z"/>
   <path class="fil4" d="M40.516 36.333l-6.333 -6.333 -18.7 18.699c0.685,0.733 1.833,0.816 3.116,0.101l21.917 -12.467z"/>
   <path class="fil5" d="M40.516 23.667l-21.917 -12.449c-1.283,-0.734 -2.435,-0.632 -3.116,0.101l18.7 18.681 6.333 -6.333z"/>
   <path class="fil6" d="M40.381 36.198l-21.767 12.367c-1.216,0.699 -2.3,0.651 -3,0.014l-0.116 0.116 0.116 0.101c0.7,0.633 1.784,0.685 3,-0.014l21.917 -12.449c0,0 -0.15,-0.135 -0.15,-0.135z"/>
   <path class="fil7" d="M47.847 31.948l-7.485 4.25 0.135 0.135 7.332 -4.168c1.051,-0.598 1.567,-1.384 1.567,-2.165 -0.064,0.718 -0.599,1.398 -1.549,1.948z"/>
   <path class="fil8" d="M18.599 11.435l29.248 16.616c0.95,0.535 1.485,1.234 1.568,1.949 0,-0.782 -0.517,-1.568 -1.568,-2.166l-29.248 -16.616c-2.098,-1.201 -3.801,-0.198 -3.801,2.199l0 0.217c0,-2.401 1.703,-3.385 3.801,-2.199z"/>
  </g>
 </g>
</svg>
